<?xml version="1.0"?>
<svg xmlns="http://www.w3.org/2000/svg" height="512px" viewBox="-16 -48 528 528" width="512px"><g><path d="m46.953125 40.515625h-.03125c-5.539063.109375-9.96875 4.632813-9.976563 10.167969-.011718 5.542968 4.40625 10.074218 9.949219 10.207031 2.695313-.011719 5.289063-1.074219 7.210938-2.964844 1.925781-1.898437 3.007812-4.492187 3.007812-7.195312.011719-5.621094-4.535156-10.191407-10.160156-10.214844zm0 0" data-original="#000000" class="active-path" data-old_color="#2e3849" fill="#2e3849"/><path d="m495 389.277344v-268.742188h-495v268.742188c.0234375 22.769531 18.480469 41.222656 41.25 41.25h412.5c22.769531-.027344 41.226562-18.480469 41.25-41.25zm-247.5-229.121094c28.992188 0 52.5 23.507812 52.5 52.5 0 28.996094-23.507812 52.5-52.5 52.5s-52.5-23.503906-52.5-52.5c.035156-28.976562 23.519531-52.464844 52.5-52.5zm68.75 208.125h-137.5c-4.835938 0-8.75-3.914062-8.75-8.75 0-42.800781 34.695312-77.5 77.5-77.5s77.5 34.699219 77.5 77.5c0 4.835938-3.914062 8.75-8.75 8.75zm0 0" data-original="#000000" class="active-path" data-old_color="#2e3849" fill="#2e3849"/><path d="m217.113281 41.046875h-.035156c-5.578125.054687-10.082031 4.589844-10.089844 10.175781-.011719 5.582032 4.476563 10.136719 10.0625 10.203125h.035157c5.578124-.050781 10.082031-4.59375 10.09375-10.175781.007812-5.585938-4.484376-10.136719-10.066407-10.203125zm0 0" data-original="#000000" class="active-path" data-old_color="#2e3849" fill="#2e3849"/><path d="m282.5 212.65625c0 19.332031-15.667969 35-35 35s-35-15.667969-35-35c0-19.328125 15.667969-35 35-35s35 15.671875 35 35zm0 0" data-original="#000000" class="active-path" data-old_color="#2e3849" fill="#2e3849"/><path d="m132.035156 40.777344h-.035156c-5.519531.140625-9.921875 4.652344-9.929688 10.175781-.007812 5.519531 4.378907 10.042969 9.898438 10.199219h.03125c5.519531-.140625 9.921875-4.652344 9.933594-10.167969.003906-5.523437-4.386719-10.046875-9.902344-10.207031zm0 0" data-original="#000000" class="active-path" data-old_color="#2e3849" fill="#2e3849"/><path d="m247.5 299.53125c-29.746094.039062-54.984375 21.832031-59.367188 51.25h118.734376c-4.382813-29.417969-29.621094-51.210938-59.367188-51.25zm0 0" data-original="#000000" class="active-path" data-old_color="#2e3849" fill="#2e3849"/><path d="m495 39.167969c-.023438-22.769531-18.480469-41.226563-41.25-41.25h-412.5c-22.769531.023437-41.2265625 18.480469-41.25 41.25v63.867187h495zm-428.558594 31.179687c-5.171875 5.171875-12.199218 8.066406-19.511718 8.046875h-.09375c-15.148438-.222656-27.300782-12.578125-27.273438-27.730469.015625-15.144531 12.210938-27.464843 27.355469-27.640624h.09375c11.195312.035156 21.269531 6.8125 25.523437 17.167968 4.253906 10.363282 1.84375 22.261719-6.09375 30.15625zm65.558594 8.316406h-.082031c-15.117188-.269531-27.222657-12.613281-27.195313-27.730468.023438-15.117188 12.160156-27.421875 27.277344-27.644532h.089844c15.117187.273438 27.214844 12.617188 27.199218 27.734376-.027343 15.109374-12.171874 27.414062-27.289062 27.640624zm104.601562-7.785156c-5.175781 5.171875-12.195312 8.074219-19.515624 8.054688h-.085938c-15.222656-.128906-27.488281-12.515625-27.46875-27.734375.023438-15.226563 12.335938-27.574219 27.558594-27.648438h.082031c11.203125.035157 21.273437 6.8125 25.527344 17.171875 4.257812 10.359375 1.851562 22.261719-6.09375 30.15625zm0 0" data-original="#000000" class="active-path" data-old_color="#2e3849" fill="#2e3849"/></g> </svg>
